<?xml version="1.0" encoding="UTF-8"?>
<!DOCTYPE svg PUBLIC "-//W3C//DTD SVG 1.1//EN" "http://www.w3.org/Graphics/SVG/1.1/DTD/svg11.dtd">
<!-- Creator: CorelDRAW -->
<svg xmlns="http://www.w3.org/2000/svg" xml:space="preserve" width="210mm" height="297mm" style="shape-rendering:geometricPrecision; text-rendering:geometricPrecision; image-rendering:optimizeQuality; fill-rule:evenodd; clip-rule:evenodd"
viewBox="0 0 210 297">
 <defs>
  <style type="text/css">
   <![CDATA[
    .fil3 {fill:#1F1A17}
    .fil1 {fill:#0B3468}
    .fil2 {fill:#AA9100}
    .fil0 {fill:#C7C7C6}
    .fil5 {fill:#0B3468;fill-rule:nonzero}
    .fil4 {fill:#C7C7C6;fill-rule:nonzero}
   ]]>
  </style>
 </defs>
 <g id="Layer_x0020_1">
  <metadata id="CorelCorpID_0Corel-Layer"/>
  <g id="_142250352">
   <path id="_20880112" class="fil0" d="M167.274 196.479l0 -101.975 -124.987 0 0 101.975c0,34.4202 28.0732,62.4934 62.4936,62.4934 34.4216,0 62.4935,-28.0732 62.4935,-62.4934zm2.6288 -0.1379l0 -104.688 -130.243 0 0 104.688c0,35.8688 29.2534,65.1222 65.1211,65.1222 35.8689,0 65.1223,-29.2534 65.1223,-65.1222z"/>
   <path id="_19448376" class="fil1" d="M167.274 196.479l0 -101.975 -124.987 0 0 101.975c0,34.4202 28.073,62.4932 62.4937,62.4932 34.4206,0 62.4936,-28.073 62.4936,-62.4932z"/>
   <path id="_21044880" class="fil2" d="M99.1517 88.5771l0 -15.4358 -40.613 0 0.0003 0.5578c-0.0015,1.277 -0.528,2.442 -1.3748,3.2885 -0.843,0.8425 -2.0048,1.3662 -3.2817,1.3662l-1.9488 0c-1.277,0 -2.4388,-0.5237 -3.2815,-1.3662 -0.8471,-0.8469 -1.3733,-2.012 -1.374,-3.2885l0 -0.5562 -0.3365 0.0002c-1.277,-0.0015 -2.442,-0.5279 -3.2886,-1.3748 -0.8424,-0.843 -1.3661,-2.0048 -1.3661,-3.2817l0 -1.9487c0,-1.2769 0.5237,-2.4388 1.3661,-3.2816 0.8469,-0.847 2.0121,-1.3732 3.2886,-1.3739l0.3375 0 0 -0.557c0,-1.2812 0.5234,-2.4455 1.3663,-3.2884l0 0.0065c0.8466,-0.8467 2.011,-1.3726 3.2882,-1.3726l1.9488 0c1.2772,0 2.4392,0.5234 3.2821,1.366l0.0065 0c0.8427,0.8427 1.3661,2.0068 1.3661,3.2885l0 0.558 40.6145 0 0 -15.4358 -24.3628 0 0.0001 0.558c-0.0014,1.277 -0.5276,2.4421 -1.3747,3.2884 -0.8431,0.8424 -2.0046,1.3661 -3.2816,1.3661l-1.9488 0c-1.277,0 -2.4388,-0.5237 -3.2815,-1.3661 -0.8471,-0.8469 -1.3735,-2.0117 -1.3742,-3.2884l0 -0.5562 -0.3365 0.0002c-1.277,-0.0015 -2.4421,-0.5279 -3.2886,-1.3749 -0.8424,-0.8431 -1.3659,-2.0047 -1.3659,-3.2816l0 -1.9487c0,-1.277 0.5237,-2.4388 1.3661,-3.2816 0.8469,-0.847 2.0117,-1.3732 3.2884,-1.3739l0.3375 0 0 -0.557c0,-1.2812 0.5234,-2.4456 1.3663,-3.2885 0.8428,-0.8428 2.0069,-1.3662 3.2884,-1.3662l1.9488 0c1.2817,0 2.4458,0.5234 3.2886,1.3662l0 0.0064c0.8424,0.8428 1.3659,2.0049 1.3659,3.2821l0 0.5578 24.3645 0 0 -13.7706 -0.558 0c-1.2772,0 -2.4392,-0.5234 -3.2821,-1.3659l-0.0065 -0.0065c-0.8426,-0.8429 -1.3659,-2.0049 -1.3659,-3.2821l0 -1.9487c0,-1.2815 0.5233,-2.4457 1.3661,-3.2884 0.8429,-0.8429 2.0072,-1.3663 3.2884,-1.3663l0.557 0 0 -0.3375c0.0007,-1.281 0.5247,-2.4456 1.3674,-3.2884l0.0065 0c0.8431,-0.8424 2.0047,-1.3661 3.2816,-1.3661l1.9489 0c1.2771,0 2.4385,0.5237 3.2816,1.3661 0.8468,0.8463 1.3733,2.0114 1.3748,3.2884l-0.0002 0.3367 0.5564 0c1.2767,0.0007 2.4415,0.5269 3.2884,1.3739 0.8424,0.8428 1.3661,2.0046 1.3661,3.2816l0 1.9487c0,1.2769 -0.5236,2.4385 -1.366,3.2816 -0.8464,0.847 -2.0115,1.3734 -3.2885,1.3749l-0.558 -0.0003 0 13.7689 24.3646 0 0 -0.5578c0,-1.2772 0.5235,-2.4393 1.3659,-3.2821l0 -0.0064c0.8428,-0.8428 2.0069,-1.3662 3.2886,-1.3662l1.9488 0c1.2815,0 2.4456,0.5234 3.2884,1.3662 0.8429,0.8429 1.3663,2.0073 1.3663,3.2885l0 0.557 0.3373 0c1.2766,0.0007 2.4419,0.5269 3.2884,1.3738 0.8428,0.8429 1.3663,2.0047 1.3663,3.2817l0 1.9487c0,1.2769 -0.5237,2.4385 -1.3661,3.2816 -0.8461,0.8469 -2.0112,1.3734 -3.2886,1.3749l-0.3365 -0.0002 0 0.5562c-0.0007,1.2765 -0.5269,2.4415 -1.3739,3.2884 -0.8428,0.8424 -2.0046,1.3661 -3.2816,1.3661l-1.9488 0c-1.2769,0 -2.4385,-0.5235 -3.2816,-1.366 -0.847,-0.8464 -1.3734,-2.0115 -1.3749,-3.2885l0.0003 -0.558 -24.3629 0 0 15.4358 40.6146 0 0 -0.558c0,-1.2772 0.5235,-2.4393 1.366,-3.2821l0.0065 -0.0064c0.8429,-0.8426 2.0048,-1.366 3.282,-1.366l1.949 0c1.2815,0 2.4455,0.5234 3.2882,1.3661 0.8429,0.8429 1.3663,2.0072 1.3663,3.2884l0 0.557 0.3375 0c1.281,0.0007 2.4457,0.5247 3.2884,1.3674l0 0.0065c0.8424,0.8428 1.3661,2.0047 1.3661,3.2816l0 1.9487c0,1.2769 -0.5237,2.4387 -1.3661,3.2817 -0.8462,0.8468 -2.0113,1.3733 -3.2884,1.3748l-0.3365 -0.0002 0 0.5562c-0.0007,1.2767 -0.527,2.4418 -1.374,3.2884 -0.8429,0.8427 -2.0045,1.3663 -3.2815,1.3663l-1.949 0c-1.2768,0 -2.4385,-0.5237 -3.2815,-1.3662 -0.8468,-0.8465 -1.3733,-2.0115 -1.3748,-3.2885l0.0002 -0.5578 -40.613 0 0 15.4358 -1.6652 0 0 -17.101 43.944 0 -0.0008 2.223c0.0018,1.6424 1.3471,2.9895 2.9911,2.9895l1.949 0c1.644,0 2.9893,-1.3471 2.9903,-2.9895l0 -2.2222 2.0017 0.001c1.6422,-0.0018 2.9894,-1.3471 2.9894,-2.9913l0 -1.9487c0,-1.6442 -1.3472,-2.9893 -2.9894,-2.9903l-2.0027 0 0 -2.2222c0,-1.6432 -1.3453,-2.9893 -2.9893,-2.9893l-1.949 0c-1.644,0 -2.9893,1.3451 -2.9893,2.9893l0 2.2232 -43.945 0 0 -18.7662 27.694 0 -0.001 2.2232c0.002,1.6422 1.3471,2.9893 2.9913,2.9893l1.9488 0c1.6442,0 2.9895,-1.3471 2.9903,-2.9893l0 -2.2222 2.0017 0.001c1.6424,-0.002 2.9895,-1.3471 2.9895,-2.9913l0 -1.9487c0,-1.6442 -1.3471,-2.9895 -2.9895,-2.9903l-2.0025 0 0 -2.2222c0,-1.6434 -1.3453,-2.9895 -2.9895,-2.9895l-1.9488 0c-1.6442,0 -2.9893,1.3453 -2.9893,2.9895l0 2.223 -27.695 0 0 -17.1 2.2232 0.001c1.6422,-0.002 2.9893,-1.3471 2.9893,-2.9913l0 -1.9487c0,-1.6442 -1.3471,-2.9895 -2.9893,-2.9903l-2.2222 0 0.0008 -2.0019c-0.0018,-1.6422 -1.3471,-2.9893 -2.9912,-2.9893l-1.9489 0c-1.644,0 -2.9893,1.3471 -2.9903,2.9893l0 2.0027 -2.2222 0c-1.6432,0 -2.9894,1.3453 -2.9894,2.9895l0 1.9487c0,1.6442 1.3453,2.9893 2.9894,2.9893l2.2232 0 0 17.101 -27.6949 0 0 -2.223c0,-1.6442 -1.3451,-2.9895 -2.9893,-2.9895l-1.9488 0c-1.6442,0 -2.9895,1.3461 -2.9895,2.9895l0 2.2222 -2.0027 0c-1.6422,0.0008 -2.9893,1.3461 -2.9893,2.9903l0 1.9487c0,1.6442 1.3471,2.9893 2.9893,2.9913l2.0017 -0.001 0 2.2222c0.001,1.6422 1.3463,2.9893 2.9905,2.9893l1.9488 0c1.6442,0 2.9893,-1.3471 2.9912,-2.9893l-0.0009 -2.2232 27.6939 0 0 18.7662 -43.9449 0 0 -2.2232c0,-1.6442 -1.3453,-2.9893 -2.9895,-2.9893l-1.9488 0c-1.6442,0 -2.9893,1.3461 -2.9893,2.9893l0 2.2222 -2.0027 0c-1.6424,0.001 -2.9895,1.3461 -2.9895,2.9903l0 1.9487c0,1.6442 1.3471,2.9895 2.9895,2.9913l2.0017 -0.001 0 2.2222c0.001,1.6424 1.3461,2.9895 2.9903,2.9895l1.9488 0c1.6442,0 2.9895,-1.3471 2.9913,-2.9895l-0.001 -2.223 43.9441 0 0 17.101 -1.6652 0zm3.6111 0l0 -19.0469 -47.8189 0 0 4.1349c0,0.5081 -0.4153,0.9242 -0.9242,0.9242l-2.1872 0c-0.5089,0 -0.9242,-0.4153 -0.9242,-0.9242l0 -4.1349 -4.1511 0c-0.5071,0 -0.9244,-0.4153 -0.9244,-0.9243l0 -2.1873c0,-0.5088 0.4153,-0.9241 0.9244,-0.9241l4.1511 0 0 -4.1341c0,-0.5089 0.4153,-0.9242 0.9242,-0.9242l2.1872 0c0.5089,0 0.9242,0.4163 0.9242,0.9242l0 4.1341 47.8189 0 0 -22.658 -31.5687 0 0 4.135c0,0.508 -0.4153,0.9243 -0.9244,0.9243l-2.187 0c-0.5091,0 -0.9244,-0.4153 -0.9244,-0.9243l0 -4.135 -4.1511 0c-0.507,0 -0.9242,-0.4153 -0.9242,-0.9242l0 -2.1872c0,-0.509 0.4153,-0.9243 0.9242,-0.9243l4.1511 0 0 -4.1339c0,-0.5091 0.4153,-0.9244 0.9244,-0.9244l2.187 0c0.5091,0 0.9244,0.4163 0.9244,0.9244l0 4.1339 31.5687 0 0 -20.9748 -4.134 0c-0.508,0 -0.9243,-0.4153 -0.9243,-0.9242l0 -2.1872c0,-0.509 0.4153,-0.9243 0.9243,-0.9243l4.134 0 0 -4.1509c0,-0.5091 0.4153,-0.9244 0.9243,-0.9244l2.1871 0c0.509,0 0.9243,0.4172 0.9243,0.9244l0 4.1509 4.135 0c0.5091,0 0.9244,0.4153 0.9244,0.9243l0 2.1872c0,0.5089 -0.4163,0.9242 -0.9244,0.9242l-4.135 0 0 20.9748 31.5689 0 0 -4.1339c0,-0.5081 0.4153,-0.9244 0.9242,-0.9244l2.1872 0c0.5089,0 0.9242,0.4153 0.9242,0.9244l0 4.1339 4.1511 0c0.5091,0 0.9244,0.4153 0.9244,0.9243l0 2.1872c0,0.5089 -0.4173,0.9242 -0.9244,0.9242l-4.1511 0 0 4.135c0,0.509 -0.4153,0.9243 -0.9242,0.9243l-2.1872 0c-0.5089,0 -0.9242,-0.4163 -0.9242,-0.9243l0 -4.135 -31.5689 0 0 22.658 47.8189 0 0 -4.1341c0,-0.5079 0.4153,-0.9242 0.9244,-0.9242l2.1872 0c0.5089,0 0.9242,0.4153 0.9242,0.9242l0 4.1341 4.1511 0c0.5089,0 0.9242,0.4153 0.9242,0.9241l0 2.1873c0,0.509 -0.4171,0.9243 -0.9242,0.9243l-4.1511 0 0 4.1349c0,0.5089 -0.4153,0.9242 -0.9242,0.9242l-2.1872 0c-0.5091,0 -0.9244,-0.4161 -0.9244,-0.9242l0 -4.1349 -47.8189 0 0 19.0469 -4.0357 0z"/>
   <path id="_21055008" class="fil3" d="M48.8411 256.147c1.2076,-1.2506 2.3925,-1.936 3.0171,-1.3328 0.6095,0.588 -0.1504,1.8475 0.8308,2.7946 0.5906,0.5716 1.3569,0.6247 1.9436,0.0152 0.7512,-0.7777 0.067,-1.8955 -0.5412,-2.4823 -1.0812,-1.0457 -4.6067,-3.0778 -8.3585,0.0291 -0.6058,0.4919 -0.9826,0.7815 -1.1331,0.8004 -0.6955,0.0784 -1.6426,-0.8687 -1.8386,-0.6651 -0.3427,0.3541 -0.4072,0.4552 -0.086,0.765l0.7941 0.7676c0.2871,0.2769 0.0253,0.5476 -0.9016,1.5086l-3.8252 3.9605c-0.6006,0.6234 -1.0394,0.2655 -1.1241,0.1834 -0.6576,-0.5703 -0.7916,-0.6007 -0.9219,-0.4654 -0.3098,0.3212 -0.3755,0.3882 -0.2238,0.5349 0.6765,0.6525 1.4188,1.305 2.1459,2.0068 0.7436,0.7183 1.4213,1.4378 2.0966,2.0903 0.4059,0.392 0.5058,0.3566 0.8156,0.0354 0.1303,-0.1353 0.0607,-0.2997 -0.7853,-1.1824 -0.0847,-0.0809 -0.4577,-0.507 0.1442,-1.1292l5.0139 -5.1921 1.9764 1.9094c0.2378,0.2289 0.2706,0.2618 0.6626,-0.1441 0.3592,-0.3718 0.4224,-0.5387 0.3554,-0.6045l-2.1295 -2.0574 2.0726 -2.1459zm-2.127 13.0487c-0.5462,0.6752 -1.0141,0.3566 -1.1052,0.2832 -0.7056,-0.5108 -0.8409,-0.5298 -0.9597,-0.3844 -0.2808,0.3478 -0.3402,0.4198 -0.1758,0.5539 0.7309,0.5905 1.5275,1.176 2.3128,1.8108 0.803,0.6512 1.5402,1.3088 2.2711,1.9006 0.1644,0.1327 0.2226,0.0594 0.5046,-0.2871 0.1176,-0.1467 0.0708,-0.2744 -0.5754,-0.8586 -0.0911,-0.0733 -0.4995,-0.4653 0.0468,-1.1406l3.4534 -4.264c1.4176,-1.7501 2.2458,-2.5859 2.3634,-2.7326 0.0885,-0.11 0.0974,-0.344 -0.0114,-0.4325 -0.0923,-0.0746 -1.396,0.043 -4.3221,-1.5705 -0.0696,-0.0266 -0.196,0.0543 -0.2694,0.1454 -0.1327,0.1644 -0.1745,0.2516 -0.0392,0.4223 0.6917,0.8624 0.8447,1.1975 -0.0695,2.3268l-3.4244 4.2273zm8.1955 -10.5677c-0.6058,0.7486 -0.4919,1.8386 0.2567,2.4444 0.7486,0.6069 1.8399,0.4919 2.4456,-0.2567 0.6069,-0.7486 0.4919,-1.8387 -0.2567,-2.4456 -0.7486,-0.6058 -1.8399,-0.4919 -2.4456,0.2579zm5.1984 18.4672c-0.7094,1.1355 -1.7627,1.2253 -2.6997,0.6398 -1.7729,-1.1077 -0.7701,-3.7771 0.1391,-5.2326 0.9711,-1.5541 2.5821,-3.5116 4.5358,-2.2913 0.6374,0.3983 1.4618,1.3847 0.516,2.8983l-2.4912 3.9858zm3.8607 -6.1772c-0.4565,-0.8662 -1.1862,-1.5162 -2.0031,-2.0271 -2.5505,-1.5945 -6.0849,-0.2832 -7.5922,2.127 -1.568,2.5113 -1.458,5.4387 1.2317,7.1193 1.0761,0.6727 2.2786,0.9205 3.5166,0.6689 -0.3553,0.526 -0.5893,0.8561 -0.6639,0.9749 -0.0379,0.0595 0.0367,0.1619 0.0974,0.1998 0.0797,0.0494 0.8864,0.2213 3.8644,1.4403 0.1328,0.0557 0.2769,-0.1315 0.3389,-0.2314 0.0746,-0.1188 0.11,-0.2643 -0.0177,-0.3705 -0.7815,-0.655 -0.8991,-0.8674 -0.4502,-1.5844l5.5286 -8.8479c1.8171,-2.9084 2.1459,-3.0362 2.7566,-4.0124 0.0746,-0.1201 -0.0151,-0.287 -0.0746,-0.3237 -0.1593,-0.0999 -1.8158,-0.3313 -3.4231,-1.0862 -0.9914,-0.4527 -1.095,-0.4628 -1.2695,-0.1834 -0.1252,0.1985 -0.1354,0.3035 -0.0355,0.3655 1.0736,0.8093 1.1217,1.0887 0.3124,2.3836l-2.1168 3.3877zm12.864 10.0378c0.3693,0.1505 0.4654,0.1631 0.65,-0.2934 0.4502,-1.1115 0.4957,-4.2361 -3.1436,-5.7055 -2.9401,-1.1887 -5.9433,0.4109 -7.0966,3.265 -0.6955,1.721 -1.09,5.5196 3.0716,7.2015 3.5293,1.4251 5.6765,-0.7524 5.7991,-1.0572 0.0885,-0.2175 -0.1075,-0.4236 -0.3035,-0.5033 -0.2832,-0.1138 -1.305,1.2216 -3.4825,0.3415 -2.5708,-1.0382 -2.7061,-3.5255 -1.9853,-5.3123 0.0354,-0.0873 0.11,-0.2099 0.2377,-0.4616l6.2531 2.5253zm-5.8446 -3.3485c0.4489,-1.1115 1.6843,-2.4114 2.9691,-1.893 1.1545,0.4666 1.4302,1.5415 0.9813,2.653 -0.2643,0.6525 -0.5122,0.7043 -2.2345,0.0089 -0.588,-0.2378 -1.1456,-0.4882 -1.7159,-0.7689zm15.3311 6.0761c-2.5379,-1.6743 -3.2624,-2.2661 -3.0121,-3.2688 0.239,-0.9573 1.1786,-1.329 2.0688,-1.1078 1.2987,0.325 1.8184,1.7375 2.0991,2.849 0.0392,0.1303 0.3592,0.2099 0.5868,0.2668 0.1138,0.0291 0.1593,-0.0569 0.1821,-0.1479 0.0341,-0.1366 0.0961,-1.9373 0.2605,-2.5986 0.0177,-0.0683 -0.0228,-0.1998 -0.0911,-0.2175 -0.4843,-0.1922 -1.716,-0.7903 -3.0387,-1.1204 -1.9827,-0.4944 -4.4334,0.2023 -4.9847,2.414 -0.9156,3.6709 4.4992,3.9061 3.9364,6.1633 -0.3869,1.5503 -1.8462,1.2835 -2.051,1.2329 -1.0028,-0.2503 -1.6819,-0.4438 -2.4987,-2.8995 -0.0342,-0.0569 -0.2504,-0.1594 -0.4097,-0.1986 -0.2049,-0.0518 -0.3023,-0.0518 -0.3137,-0.0063 -0.1024,0.411 -0.0379,2.0979 -0.22,2.8275 -0.0177,0.0683 0.1189,0.2023 0.1872,0.22 1.4592,0.3642 2.2964,0.7904 3.1638,1.0066 2.1194,0.5286 4.656,0.067 5.2643,-2.3723 0.2845,-1.1393 -0.1328,-2.3823 -1.1293,-3.0424zm20.7459 1.7918c0.3996,0.0215 0.4945,0.0025 0.5198,-0.4894 0.0632,-1.1975 -0.9105,-4.1653 -4.8305,-4.3714 -3.1677,-0.1657 -5.4856,2.3242 -5.6474,5.3982 -0.0961,1.8538 0.7675,5.5741 5.249,5.808 3.8012,0.1998 5.1226,-2.5581 5.1403,-2.8869 0.0114,-0.2352 -0.2402,-0.3654 -0.4514,-0.3768 -0.3047,-0.0152 -0.8358,1.5806 -3.1828,1.4567 -2.7681,-0.1442 -3.7064,-2.4532 -3.6052,-4.3765 0.0051,-0.0949 0.0354,-0.234 0.0733,-0.5147l6.7349 0.3528zm-6.616 -1.2632c0.062,-1.1976 0.8068,-2.8288 2.1914,-2.7567 1.2431,0.0657 1.8538,0.9914 1.7906,2.1889 -0.0367,0.7031 -0.2554,0.8333 -2.1092,0.7359 -0.6335,-0.0328 -1.2418,-0.0885 -1.8728,-0.1681zm13.6721 -3.4168c-0.0544,-0.8928 -0.0316,-1.7198 -0.1037,-2.5392 -0.0177,-0.2099 -0.1378,-0.2238 -0.3477,-0.2048 -0.3983,0.0341 -0.4451,0.0392 -0.4856,0.1125 -0.6184,1.0218 -1.5819,2.1434 -3.4863,3.5609 -0.043,0.0506 -0.0873,0.0784 -0.0645,0.3351 0.0202,0.234 0.0329,0.3743 0.2668,0.3541l1.3569 -0.1189 0.5816 6.6489c0.1455,1.6616 1.4922,2.4911 3.5281,2.3128 2.1775,-0.1909 3.3839,-1.5035 3.3674,-1.6906 -0.0126,-0.1404 -0.2301,-0.4742 -0.3705,-0.4629 -0.0708,0.0064 -0.8662,0.6184 -1.7324,0.6943 -1.6148,0.1416 -1.8424,-1.372 -1.9423,-2.519l-0.459 -5.2427 3.4648 -0.3035c0.3275,-0.0291 0.3743,-0.0329 0.325,-0.5943 -0.0443,-0.5159 -0.129,-0.6727 -0.2226,-0.6652l-3.676 0.3225zm14.5409 5.7308c0.239,0.8308 -0.2896,1.0319 -0.4034,1.0648 -0.822,0.2845 -0.9155,0.3844 -0.8637,0.5652 0.1227,0.4287 0.148,0.5197 0.3515,0.4616 0.9042,-0.2593 1.8399,-0.5767 2.8111,-0.8549 0.9939,-0.2857 1.955,-0.5121 2.8578,-0.7713 0.5425,-0.1556 0.5615,-0.258 0.4388,-0.6879 -0.0518,-0.1808 -0.2289,-0.2023 -1.4162,0.0885 -0.1139,0.0329 -0.669,0.1429 -0.9067,-0.6892l-1.6603 -5.7902c0.0872,-0.2934 0.4906,-1.3581 1.1684,-1.5529 0.7903,-0.2263 1.0862,0.8093 2.3975,0.4337 0.8346,-0.2402 1.1166,-1.0495 0.8953,-1.8183 -0.2453,-0.8574 -1.2329,-1.2342 -2.0473,-1.0015 -1.3315,0.3818 -2.1054,1.7779 -2.763,2.8945 -0.2326,-0.8131 -0.3464,-1.4644 -0.5083,-2.0296 -0.0329,-0.1126 -0.2162,-0.1581 -0.239,-0.1518 -0.1125,0.0329 -0.7638,1.1723 -3.7645,2.6442 -0.0607,0.0417 -0.067,0.1909 -0.0341,0.3035 0.0581,0.2035 0.1062,0.287 0.3224,0.2744 1.1039,-0.0721 1.4656,-0.0051 1.8652,1.3909l1.4985 5.2263zm15.2553 -12.2178c-0.2681,-0.6019 -1.1849,-2.6619 -4.3614,-1.2481 -0.8384,0.373 -1.0673,0.5526 -2.2104,2.1421 -1.1899,1.6616 -1.4062,2.2723 -1.1103,2.9375 0.2871,0.6436 0.9333,0.7676 1.4909,0.5184 0.8156,-0.3629 1.128,-0.9901 0.7752,-1.7842 -0.105,-0.2365 -0.5969,-0.5324 -0.6449,-0.6399 -0.172,-0.3856 0.5425,-1.3214 0.9294,-1.4934 0.8586,-0.3819 1.9942,-0.1416 2.3381,0.631l0.8801 1.974 -2.7756 3.0108c-0.4982,0.5564 -1.3012,1.5832 -0.7183,2.892 0.5918,1.3315 1.8134,1.5882 3.0792,1.0255 1.1165,-0.4969 1.9398,-1.5364 2.3684,-2.6542 0.588,0.7422 1.539,0.9142 2.3546,0.5513 1.3303,-0.5931 2.0612,-2.3621 1.9082,-2.7061 -0.0392,-0.0847 -0.4135,-0.1758 -0.478,-0.1467 -0.301,0.1328 -0.1138,0.6677 -0.693,0.9257 -0.3439,0.153 -0.5324,-0.0974 -0.6474,-0.3554l-2.4848 -5.5803zm-0.4995 6.2151l0.1049 0.2365c0.191,0.4287 -0.6803,1.3568 -1.0672,1.5288 -0.7942,0.3541 -1.305,-0.215 -1.5061,-0.6664 -0.6019,-1.3518 -0.0923,-1.9398 1.4074,-3.4812l1.061 2.3823zm5.5867 -11.8726c-0.4806,-0.7537 -0.8624,-1.4884 -1.3215,-2.17 -0.1188,-0.1757 -0.2288,-0.1289 -0.4046,-0.0113 -0.3313,0.2238 -0.3705,0.2503 -0.3693,0.3351 -0.0455,1.1924 -0.3439,2.6403 -1.3239,4.8026 -0.0127,0.0658 -0.038,0.1113 0.1062,0.3263 0.1315,0.1947 0.2112,0.3111 0.4059,0.1795l1.1292 -0.7612 3.7317 5.5323c0.9332,1.3821 2.5126,1.4555 4.2071,0.3123 1.812,-1.2215 2.2306,-2.9552 2.1256,-3.1107 -0.0784,-0.1163 -0.4324,-0.3035 -0.5488,-0.2251 -0.0581,0.0392 -0.4577,0.9611 -1.1785,1.4466 -1.3442,0.9067 -2.2762,-0.3072 -2.9198,-1.2607l-2.9426 -4.3639 2.8819 -1.9448c0.2731,-0.1834 0.3123,-0.2099 -0.0025,-0.6778 -0.2896,-0.4287 -0.4401,-0.5248 -0.5185,-0.4729l-3.0576 2.0637zm10.9925 2.988c0.559,0.6652 0.1581,1.0635 0.0671,1.1394 -0.6348,0.5956 -0.6804,0.7246 -0.559,0.8687 0.2871,0.3414 0.3465,0.4135 0.5096,0.2782 0.7196,-0.6044 1.4454,-1.2746 2.2193,-1.9246 0.7916,-0.6639 1.5781,-1.2633 2.2989,-1.8664 0.1619,-0.1366 0.1012,-0.2087 -0.1859,-0.5501 -0.1214,-0.1442 -0.2567,-0.1227 -0.9522,0.4008 -0.0897,0.0747 -0.5526,0.4009 -1.1115,-0.2642l-3.5268 -4.2033c-1.4466,-1.7248 -2.1092,-2.6973 -2.2306,-2.8414 -0.091,-0.1088 -0.3199,-0.1619 -0.4274,-0.0708 -0.0898,0.0758 -0.2238,1.3783 -2.3659,3.9428 -0.0392,0.0632 0.0151,0.2023 0.091,0.2921 0.1366,0.1618 0.215,0.2187 0.4072,0.1188 0.9787,-0.5146 1.3366,-0.6006 2.2698,0.5122l3.4964 4.1678zm-8.8099 -10.0605c0.6196,0.7372 1.7121,0.8333 2.4506,0.2137 0.7372,-0.6197 0.8333,-1.7122 0.2137,-2.4494 -0.6196,-0.7385 -1.7109,-0.8333 -2.4494,-0.215 -0.7385,0.6196 -0.8333,1.7122 -0.2149,2.4507zm20.4537 2.725c1.5124,-1.5124 3.3865,-5.1871 0.3124,-8.2599 -3.0564,-3.0576 -6.7286,-1.1798 -8.241,0.3313 -1.5123,1.5124 -3.3889,5.1846 -0.3325,8.2422 3.074,3.0728 6.7488,1.1988 8.2611,-0.3136zm-0.6006 -0.6006c-1.6287,1.6274 -3.7228,-0.067 -5.1846,-1.5288 -1.4782,-1.4783 -3.1727,-3.5723 -1.5452,-5.201 1.6287,-1.6275 3.7215,0.067 5.1845,1.5288 1.4783,1.4782 3.1727,3.5723 1.5453,5.201z"/>
   <path id="_21054208" class="fil4" d="M78.1469 141.696c-1.174,-4.1604 -10.4415,-8.3311 -15.5881,-4.8759 -0.0312,0.0276 -1.2341,1.1132 -1.2577,1.1023 -4.9305,-1.5441 -10.5463,3.0984 -9.7399,8.1714 0.1699,1.0637 0.9665,2.744 1.3926,3.9512 0.0448,0.1469 -0.1921,0.4157 -0.3015,0.2983 -0.9352,-0.9938 -2.274,-2.3075 -2.3541,-3.6659 -2.678,6.862 1.5566,15.0197 6.5946,20.0611 0.0466,-5.0115 5.2219,-7.9428 9.0271,-9.7699 6.1895,-3.1048 0.9189,-17.5137 12.227,-15.2726zm-13.0074 18.8486c1.2122,0.751 1.9003,1.1445 2.9685,2.0756 0.6967,-0.5528 2.0124,-1.2422 2.9565,-1.2698 0.9405,-0.0277 2.0026,0.2354 3.1734,0.8187 0.3961,0.02 0.2293,0.5577 0.0586,0.5787 -1.654,-0.1372 -3.8378,0.4293 -4.8887,1.2067 1.0108,1.3843 2.7368,3.6249 6.751,5.7057 0.9703,-0.4922 1.6519,-1.2657 3.4468,-0.6489 0.3387,0.1729 1.3883,0.7968 1.2058,1.3834 -0.1373,0.4415 -0.7669,-0.3593 -1.4533,-0.2849 -1.3058,0.1412 -1.3979,0.7272 -2.3111,0.7187 2.7398,2.587 4.9883,5.8244 6.1302,10.0267 0.8225,0.173 1.8497,0.1437 3.5812,1.6921 0.3557,0.3634 0.0166,0.7707 -0.0746,0.7385 -0.9059,-0.3322 -2.1727,-0.6467 -2.9299,-0.484 1.6972,8.9889 5.256,13.1092 7.446,19.7212 2.3971,7.2373 3.6861,14.2269 4.2777,20.967 0.6263,1.5857 2.2007,1.3386 3.3987,0.6018 -1.1144,-8.7325 -4.8462,-18.2634 -7.1926,-26.7922 -1.1139,-4.0499 -1.3635,-8.2388 -1.6664,-12.0609 -0.307,-3.8802 -0.3995,-7.1019 -0.3716,-10.5676 -1.2849,0.1422 -1.9343,1.0986 -2.4933,2.1768 -0.1124,0.2162 -0.5818,0.2112 -0.5329,-0.1886 0.2197,-1.5719 1.1591,-3.3081 2.813,-4.0099 0.0956,-4.8553 -0.5317,-7.304 -1.344,-9.871 -1.4537,-0.8169 -2.6486,1.5893 -4.1911,2.5517 -0.3518,0.2197 -0.9083,0.0437 -0.4985,-0.4649 0.9082,-1.1278 0.3575,-2.9458 3.9779,-4.0632 -0.9676,-3.4404 -2.4108,-6.0812 -3.7008,-8.0884 -1.1272,-0.5526 -3.1201,1.5819 -3.6829,2.5457 -0.8145,1.3931 -1.8004,-4.0723 2.4173,-4.2212 -0.7718,-1.8225 -3.3308,-4.934 -5.1827,-6.2935 -4.698,-0.7671 -4.7896,3.8617 -5.8716,7.487 -1.0509,3.5235 -1.4184,7.5349 -6.2166,8.313zm27.7128 -6.9015c2.7341,-0.527 4.5494,-0.1926 5.9357,2.3076 0.6826,1.2309 1.5238,1.3908 2.9083,1.52 0.6227,-0.0273 0.2577,0.7765 -0.566,1.2139 -1.1042,0.5871 -2.3922,0.3705 -3.5352,-0.507 -1.1913,-0.9147 -1.7909,-1.2269 -3.1501,-0.954 1.1425,3.5073 2.2397,8.8312 2.316,12.8133 2.1299,0.4787 3.6704,1.9696 4.3406,4.4124 0,0 0,0 0,0 0.2568,0.3198 -0.2566,0.8539 -0.5846,0.6281 -1.2586,-1.2043 -2.7214,-1.9724 -3.6736,-1.9844 -1.7976,24.6745 5.5631,42.3028 5.7202,57.4608 -0.2228,5.397 -0.6749,10.7837 -1.1235,16.1811 0.8909,2.6352 1.6989,3.9733 2.4502,4.3133 1.5198,0.6693 1.4066,-3.0704 2.6969,-3.7183 -0.7381,-5.2593 -1.31,-10.9538 -1.6858,-16.2662 -0.2952,-17.3541 3.2536,-22.9585 4.102,-36.6857 -0.6206,-0.2334 -1.4995,0.9099 -1.9354,1.7644 -0.2758,0.2901 -0.8841,-0.1212 -0.6962,-0.4899 0,0 0,0 0,0 -0.266,-1.7189 1.4265,-3.4284 2.9771,-4.5026 0.0966,-3.526 -0.1362,-7.216 0.6361,-11.8012 -0.9534,-0.7487 -1.9689,0.5012 -2.9938,1.8282 -0.4281,0.1782 -0.748,-0.3885 -0.4766,-0.7179 0,0 0,0 0,0 0.2533,-1.9221 1.4974,-3.6187 3.9199,-4.9678 0.4466,-5.5539 1.5256,-10.752 2.3217,-14.1462 -0.7073,-0.9719 -3.4461,-1.3238 -5.4644,2.3967 -1.1392,-0.729 -0.4976,-2.4599 0.5894,-3.6099 1.7986,-1.9033 2.8004,-1.817 5.8996,-2.9457 1.0121,-3.2144 1.5818,-5.2712 3.1144,-7.5663 1.3453,-2.0131 3.4158,-4.4131 4.5996,-10.6591 -4.0827,3.6064 -8.5644,4.3454 -12.5745,4.7624 -2.1432,0.2233 -4.7016,0.6437 -5.7955,2.0221 -0.2165,3.3202 0.1149,5.6629 0.5573,9.3147 0.0825,0.4003 -0.5791,0.7097 -0.7718,0.3432 0,0 0,0 0,0 -1.3632,-1.8867 -2.2057,-4.4624 -2.6118,-7.2129 -0.0446,0.0551 -1.2875,-0.0125 -1.3605,-0.0208 -4.1458,-0.4468 -8.4468,-4.5364 -10.9161,-7.4067 0.4545,7.1011 2.9591,6.9619 4.8304,12.8804zm-13.2139 -24.4223c1.7401,-1.7463 5.0903,-1.8694 5.4303,1.0635 0.2503,2.2118 -1.9982,3.6404 1.1378,6.9909 1.7826,-2.6611 8.877,-2.6998 9.3414,-1.7991 0.1713,0.3314 0.2498,0.5502 -0.0475,0.595 -2.2633,0.3444 -5.2942,1.9944 -4.8976,3.0874 2.6193,3.2371 6.0618,5.913 9.2949,6.4613 4.0174,-8.0497 18.4514,0.5461 24.2749,-15.7716 0.4799,-1.1168 3.0764,-0.6115 3.8442,0.189 0.0653,-2.0736 -0.0223,-4.2565 -0.559,-6.3578 -1.8445,-1.3643 -4.7638,-2.7815 -7.3156,-2.3451 -1.9103,0.3143 -3.7559,1.0509 -5.7056,1.2148 -0.406,0.0271 -0.5497,-0.5459 -0.1702,-0.6959 1.675,-0.6549 3.1931,-1.6235 4.8945,-2.2786 2.2245,-0.8452 5.4293,-0.3292 7.5491,0.6123 -0.5106,-2.5244 -2.1814,-5.6673 -4.0075,-7.6946 -2.2904,-0.3818 -3.7902,0.7107 -5.6488,1.6385 -0.3531,0.1774 -0.7325,-0.2321 -0.5103,-0.5322 1.0895,-2.3787 3.0133,-3.0704 4.4886,-3.2605 -4.7765,-5.1434 -13.9497,-4.6255 -18.517,0.3956 -0.144,0.1502 -0.4188,0.1775 -0.5888,0.041 -6.7919,-5.6754 -15.4549,-3.0426 -19.3283,3.7108 4.5408,-1.2549 8.0349,0.8731 11.2145,3.6705 0.2879,0.2728 -0.1045,0.7504 -0.4577,0.5734 -3.9658,-1.9516 -8.039,-3.5807 -12.214,-1.2066 -1.4608,3.5696 -2.7329,7.8093 -1.5023,11.698zm60.8928 32.7477c-0.9893,0.4063 -2.0387,1.1355 -3.1301,2.1407 -1.2384,-1.0947 -2.942,-1.092 -5.1239,0.3602 -0.3669,0.0564 -0.229,0.6203 -0.0746,0.6338 1.5206,-0.279 2.9935,-0.4891 3.934,0.2744 -1.2574,1.3614 -4.5332,5.3747 -5.856,7.3524 -0.9027,-0.4604 -2.0072,-0.5474 -2.7087,0.496 -0.7743,1.1503 -1.3582,0.4323 -2.0885,0.4688 -0.4566,0.0226 0.2451,0.8279 0.7918,1.1138 1.7181,0.8984 2.464,-1.2036 3.1379,-0.7478 -2.0489,3.2301 -1.188,5.3483 -5.6705,11.3306 -0.8124,0.2267 -2.3041,0.1902 -4.0654,1.9633 -0.3635,0.4178 -0.0326,0.8374 0.0558,0.8044 0.9127,-0.4128 2.4408,-0.77 3.189,-0.6353 -1.6185,6.3318 -5.2826,13.633 -7.7016,20.3857 -3.2187,8.9856 -4.5656,17.102 -4.7748,24.4885 -0.6552,1.7564 -2.3219,1.5439 -3.5953,0.7678 1.0846,-12.4974 6.7285,-26.2519 8.5016,-35.1179 1.2133,-6.0691 0.2928,-9.8701 1.9691,-19.1043 1.2554,0.0764 1.6374,1.0064 2.1446,2.1394 0.1019,0.2274 0.566,0.1966 0.5282,-0.2265 -0.1519,-1.6936 -0.8015,-3.5616 -2.3832,-4.2209 0.4471,-3.8055 1.2001,-7.9585 2.2841,-11.3003 2.1146,0.2308 2.1651,2.1088 3.2436,3.2431 0.241,0.2531 0.6862,-0.0378 0.5504,-0.3381 -0.6723,-0.6317 -0.0816,-3.1997 -3.0538,-5.0689 0.951,-3.6559 2.5197,-6.6302 3.7167,-8.2336 1.0782,-0.1577 2.9628,1.8766 3.0259,2.5306 0.2573,0.1968 0.6416,-0.0946 0.5068,-0.3829 0,0 0,0 0,0 -0.4819,-1.061 -1.125,-3.5006 -2.3778,-3.9363 0.8478,-2.0078 2.0855,-3.4805 3.462,-5.1483 8.3114,-2.4968 4.6193,12.4806 11.5627,13.9676zm-12.8151 -16.8254c2.3116,-4.1338 10.9161,-9.5964 16.846,-6.2895 0.0353,0.0148 1.3917,0.9288 1.4285,0.9162 5.2339,-2.0973 11.7652,2.4523 11.3281,8.0098 -0.1109,1.1651 -0.8159,3.0579 -1.1873,4.4045 -0.0294,0.1487 0.2405,0.429 0.3541,0.2971 0.935,-1.1515 2.2951,-2.6968 2.2584,-4.1661 3.5351,7.1829 -0.4166,16.3753 -5.4966,22.2696 -0.4764,-5.4243 -6.3761,-8.1591 -10.6755,-9.7952 -7.2841,-1.9868 -1.4735,-17.2378 -14.8557,-15.6464z"/>
   <path id="_19459016" class="fil5" d="M146.12 141.506c-0.2013,0.0982 -0.312,0.3094 -0.1878,0.5232 2.7107,1.7835 5.4323,5.3064 5.4228,10.3127 -0.94,0.7292 -5.9194,0.1978 -6.9904,-1.6287 -0.2496,-0.1952 -0.6391,0.1041 -0.5076,0.3985 0.6495,3.7066 6.1356,3.9486 8.0119,3.7396 1.9589,1.8237 1.1921,5.8547 1.479,9.3141 0.0799,0.2009 0.3597,0.2318 0.5124,0.0903 0.0713,-0.0566 0.1162,-0.1397 0.1254,-0.235 0,0 0,0 0,0 0.8154,-3.4265 1.4742,-9.5705 0.0817,-13.641 -0.2411,-2.0214 -4.3837,-8.6011 -7.9474,-8.8737zm-37.6265 90.0091c-0.5718,0.3586 -0.913,0.851 -0.7593,1.0956 0.1535,0.2448 0.7322,0.4931 1.3042,0.1348 0.5716,-0.3582 0.9257,-1.191 0.7721,-1.4359 -0.1537,-0.2453 -0.7451,-0.1529 -1.317,0.2055zm-11.2423 -9.2214c0.5372,0.3312 0.8589,0.7889 0.717,1.0196 -0.1413,0.2303 -0.6807,0.4659 -1.218,0.1345 -0.5374,-0.3312 -0.8736,-1.1075 -0.7319,-1.3378 0.142,-0.2301 0.6954,-0.1479 1.2329,0.1837zm5.5577 25.2708c-0.3538,-1.023 -0.479,-2.7927 0.2035,-3.7846 0.4002,-0.5803 1.8474,-0.7031 1.2689,0.3463 -0.5507,0.9981 0.3488,2.8964 0.8166,2.9732 0,0 0,0 0.0093,0.0016 0.0413,0.0067 0.0558,0.0873 0.07,0.1497 0.3761,1.6282 -1.6889,2.3411 -2.3683,0.3138zm-30.0219 -93.3105c4.4474,3.4834 6.9135,6.6584 8.6423,9.7627 2.9241,5.2498 3.9725,10.403 2.2475,9.3376 -0.9082,-0.6084 -0.7597,-1.7374 -1.4029,-4.0443 -0.8797,-3.158 -3.8969,-8.8088 -7.2427,-12.2105 -1.9358,-1.9688 -3.0004,-2.5408 -2.5894,-2.8526 0.143,-0.1081 0.2278,-0.0843 0.3452,0.0071zm-12.3333 -14.9787c0,0 0,0 0,0 0.2194,-0.1911 0.5969,0.1769 0.4447,0.4178 -1.7749,3.4263 -3.1362,5.9701 -3.5162,10.1181 -0.3202,1.0236 5.0825,1.1616 6.6648,-0.5617 0.2081,-0.2036 0.6044,0.017 0.5258,0.3107 -2.3081,3.3229 -7.787,2.4184 -7.3141,2.614 -0.0009,0.1382 -0.0135,0.2643 0.001,0.3134 0,0 0,0 0,0 0.0006,0.1499 0.0088,0.2618 0.0041,0.35 0.0197,2.7779 -0.0111,5.4846 -0.6482,8.1497 -0.0976,0.3199 -0.5502,0.2558 -0.606,-0.042 0,0 0,0 0,0 -0.7312,-3.476 -1.5648,-7.1189 -1.2802,-10.6086 0.3475,-3.8449 2.5278,-9.0049 5.7243,-11.0614zm61.9763 36.8249c1.6693,-5.95 4.5154,-11.328 6.4845,-14.3907 0.7657,-1.1908 5.7852,-6.9941 5.0468,-3.0316 -0.2278,1.1749 -1.3479,1.0562 -3.1207,2.8033 -2.4405,2.4048 -4.7259,6.4094 -6.6562,11.281 -0.7004,1.7671 -1.0031,2.8844 -1.2491,3.4471 -0.2749,0.6292 -0.7095,0.6206 -0.5053,-0.1091zm-19.6061 -6.9697c-0.3826,-1.689 0.2122,-1.1092 0.7282,-0.228 2.7524,4.6996 0.6689,18.9287 0.1251,24.1433 -0.602,5.8264 0.2096,10.3181 0.3829,16.0223 -0.0003,0.0095 -0.0003,0.0095 -0.0003,0.0095 -0.0018,0.2259 -0.2255,0.3197 -0.3382,0.129 0,0 0,0 0,0 -2.1666,-5.8189 -1.9366,-13.91 -1.3843,-17.7144 -3.3824,-0.7888 -5.6214,-6.3142 -3.1531,-4.3859 1.0289,0.8033 1.8062,2.0505 3.2406,1.9426 0.9883,-5.5325 1.7186,-14.0955 0.3991,-19.9184zm0.0883 -56.7893c0,0 0,0 0,0 3.7232,3.4409 4.7812,10.5777 4.1548,16.1355 -0.0841,0.745 0.1433,1.3579 0.5798,1.7349 0.5605,0.4851 4.3208,-0.1776 5.355,-0.6867 0.3564,-0.1757 0.5699,0.2147 0.1865,0.7888 -0.8224,1.2317 -5.5244,2.3282 -6.7366,1.698 -0.549,3.0684 -1.6605,4.6798 -3.4504,6.5268 -0.2497,0.2577 -0.7018,0.0524 -0.6128,-0.3127 0.8802,-3.3565 2.2057,-7.8621 1.8715,-11.3755 -0.7677,-2.1502 -4.6754,-1.9957 -7.4437,-0.7568 -1.8061,0.8076 2.2561,-4.395 7.5551,-1.9331 -0.1524,-4.0497 -0.8689,-7.6396 -2.0497,-11.4405 0,0 0,0 0,0 -0.1116,-0.3397 0.3229,-0.627 0.5905,-0.3787z"/>
   <path id="_20835416" class="fil3" d="M169.902 196.341l0 -104.689 -130.243 0 0 104.689c0,35.8679 29.2536,65.1213 65.1217,65.1213 35.868,0 65.1216,-29.2534 65.1216,-65.1213zm3.1787 -107.867l0 107.867c0,37.618 -30.682,68.2998 -68.3003,68.2998 -37.6184,0 -68.3004,-30.6818 -68.3004,-68.2998 0,-35.956 -0.001,-71.9143 -0.001,-107.867l136.602 0z"/>
  </g>
 </g>
</svg>
